<svg xmlns="http://www.w3.org/2000/svg" viewBox="0 0 256 256" role="img" aria-labelledby="title desc">
  <title id="title">FocusFlux icon</title>
  <desc id="desc">A looping focus wave forming a lightning F inside a rounded square.</desc>
  <defs>
    <linearGradient id="bg" x1="32" y1="18" x2="224" y2="238" gradientUnits="userSpaceOnUse">
      <stop offset="0" stop-color="#2f8f82"/>
      <stop offset="0.46" stop-color="#f2b84b"/>
      <stop offset="1" stop-color="#f26f5e"/>
    </linearGradient>
    <filter id="softShadow" x="-20%" y="-20%" width="140%" height="140%">
      <feDropShadow dx="0" dy="12" stdDeviation="14" flood-color="#13211e" flood-opacity=".22"/>
    </filter>
  </defs>
  <rect width="256" height="256" rx="56" fill="#fffdf6"/>
  <path d="M44 151c26-54 57-54 93 0s67 54 90 0" fill="none" stroke="url(#bg)" stroke-width="28" stroke-linecap="round"/>
  <path d="M50 101c24-32 53-32 86 0s63 32 86 0" fill="none" stroke="#13211e" stroke-width="12" stroke-linecap="round" opacity=".82"/>
  <path d="M116 46h72l-49 67h43L91 216l21-78H72L116 46Z" fill="#13211e" filter="url(#softShadow)"/>
  <path d="M126 63h30l-38 55h34l-38 42 9-39H98l28-58Z" fill="#fffdf6" opacity=".96"/>
</svg>
